<?xml version="1.0" encoding="UTF-8" standalone="no"?>
<svg width="28px" height="32px" viewBox="0 0 28 32" version="1.1" xmlns="http://www.w3.org/2000/svg" xmlns:xlink="http://www.w3.org/1999/xlink">
    <!-- Generator: Sketch 44.1 (41455) - http://www.bohemiancoding.com/sketch -->
    <title>delete </title>
    <desc>Created with Sketch.</desc>
    <defs></defs>
    <g id="Page-2-Copy" stroke="none" stroke-width="1" fill="none" fill-rule="evenodd">
        <g id="203" stroke="#979797" transform="translate(-2.000000, 0.000000)" fill-rule="nonzero" fill="#95909E">
            <path d="M2,7 C2,8.65685425 3.3504982,10 4.99649048,10 L27.0035095,10 C28.6584255,10 30,8.65348288 30,7 C30,5.34314575 28.6495018,4 27.0035095,4 L4.99649048,4 C3.34157448,4 2,5.34651712 2,7 L2,7 L2,7 Z M27.0035095,6 C27.5484101,6 28,6.45119069 28,7 C28,7.55094829 27.5518215,8 27.0035095,8 L4.99649048,8 C4.45158992,8 4,7.54880931 4,7 C4,6.44905171 4.4481785,6 4.99649048,6 L27.0035095,6 L27.0035095,6 Z M11,1.99791312 L11,4.00208688 C11,5.10550383 11.8874333,6 12.999615,6 L19.000385,6 C20.1047419,6 21,5.10173938 21,4.00208688 L21,1.99791312 C21,0.894496173 20.1125667,0 19.000385,0 L12.999615,0 C11.8952581,0 11,0.898260623 11,1.99791312 L11,1.99791312 L11,1.99791312 Z M19.000385,2 C19.0044633,2 19,4.00208688 19,4.00208688 C19,3.99867107 12.999615,4 12.999615,4 C12.9955367,4 13,1.99791312 13,1.99791312 C13,2.00132893 19.000385,2 19.000385,2 L19.000385,2 L19.000385,2 Z M6,10.0049466 L6,29.9950534 C6,31.1023548 6.89821238,32 7.99079514,32 L24.0092049,32 C25.1086907,32 26,31.1029738 26,29.9950534 L26,10.0049466 C26,8.89764516 25.1017876,8 24.0092049,8 L7.99079514,8 C6.89130934,8 6,8.89702623 6,10.0049466 L6,10.0049466 L6,10.0049466 Z M24,10.0001041 C23.9883052,10.0001041 23.9908057,29.9949494 23.9908057,29.9949494 C23.9908057,30.0011505 8,29.9998959 8,29.9998959 C8.01169485,29.9998959 8.00919429,10.0050506 8.00919429,10.0050506 C8.00919429,9.99884953 24,10.0001041 24,10.0001041 L24,10.0001041 L24,10.0001041 Z" id="Rectangle-981" stroke="none"></path>
        </g>
    </g>
</svg>